<svg width="24" height="24" viewBox="0 0 24 24" fill="none" xmlns="http://www.w3.org/2000/svg">
<path opacity="0.5" d="M12 6.5C9.51 6.5 8 8.52 8 11V17H16V11C16 8.52 14.49 6.5 12 6.5Z" fill="#1E3E0A"/>
<path d="M12 2.5C12.83 2.5 13.5 3.17 13.5 4V4.67969C16.37 5.35969 18 7.93 18 11V16L20 18V19H4V18L6 16V11C6 7.92 7.64 5.35969 10.5 4.67969V4C10.5 3.17 11.17 2.5 12 2.5ZM12 6.5C9.51 6.5 8 8.52 8 11V17H16V11C16 8.52 14.49 6.5 12 6.5Z" fill="#1E3E0A"/>
<path d="M12 22C13.1 22 14 21.1 14 20H10C10 21.1 10.9 22 12 22Z" fill="#1E3E0A"/>
</svg>
