<svg width="24" height="24" viewBox="0 0 24 24" fill="none" xmlns="http://www.w3.org/2000/svg">
<path opacity="0.5" d="M12 10.1C13.1598 10.1 14.1 9.15979 14.1 7.99999C14.1 6.8402 13.1598 5.89999 12 5.89999C10.8402 5.89999 9.90002 6.8402 9.90002 7.99999C9.90002 9.15979 10.8402 10.1 12 10.1Z" fill="#1E3E0A"/>
<path opacity="0.5" d="M12 14.9C9.03002 14.9 5.90002 16.36 5.90002 17V18.1H18.1V17C18.1 16.36 14.97 14.9 12 14.9Z" fill="#1E3E0A"/>
<path d="M12 13C14.67 13 20 14.34 20 17V20H4V17C4 14.34 9.33 13 12 13ZM12 14.9004C9.03 14.9004 5.90039 16.36 5.90039 17V18.0996H18.0996V17C18.0996 16.36 14.97 14.9004 12 14.9004Z" fill="#1E3E0A"/>
<path d="M12 4C14.21 4 16 5.79 16 8C16 10.21 14.21 12 12 12C9.79 12 8 10.21 8 8C8 5.79 9.79 4 12 4ZM12 5.90039C10.84 5.90039 9.90039 6.84 9.90039 8C9.90039 9.16 10.84 10.0996 12 10.0996C13.16 10.0996 14.0996 9.16 14.0996 8C14.0996 6.84 13.16 5.90039 12 5.90039Z" fill="#1E3E0A"/>
</svg>
